<svg width="16" height="11" viewBox="0 0 16 11" xmlns="http://www.w3.org/2000/svg">
    <path d="M16 3.714c-5.68.194-11.087 1.5-16 3.708v3.148h3.646V8.752c0-.82.665-1.484 1.485-1.484.82 0 1.485.664 1.485 1.484v1.818h3.208V8.05c0-.82.665-1.485 1.484-1.485.82 0 1.485.665 1.485 1.485v2.52H16V7.665v-3.95zM0 4.37c1.196-.5 2.413-.947 3.646-1.34v.777c.98-.32 1.97-.604 2.97-.855v-.76c1.06-.262 2.13-.484 3.207-.667v.75c.985-.17 1.975-.308 2.97-.412v-.74C13.857 1.012 14.927.94 16 .905v1.856c-5.672.19-11.073 1.462-16 3.618V4.37z" fill="#CCC" fill-rule="evenodd"/>
</svg>
